<?xml version="1.0" encoding="UTF-8" standalone="no"?>
<!-- Created with Inkscape (http://www.inkscape.org/) -->

<svg
   width="364.46097mm"
   height="230.61407mm"
   viewBox="0 0 364.46097 230.61407"
   version="1.1"
   id="svg20086"
   inkscape:export-filename="openvinylbox.svg"
   inkscape:export-xdpi="96"
   inkscape:export-ydpi="96"
   sodipodi:docname="logo_alt.svg"
   inkscape:version="1.2.2 (b0a8486541, 2022-12-01)"
   xmlns:inkscape="http://www.inkscape.org/namespaces/inkscape"
   xmlns:sodipodi="http://sodipodi.sourceforge.net/DTD/sodipodi-0.dtd"
   xmlns="http://www.w3.org/2000/svg"
   xmlns:svg="http://www.w3.org/2000/svg">
  <sodipodi:namedview
     id="namedview20088"
     pagecolor="#505050"
     bordercolor="#eeeeee"
     borderopacity="1"
     inkscape:showpageshadow="0"
     inkscape:pageopacity="0"
     inkscape:pagecheckerboard="0"
     inkscape:deskcolor="#505050"
     inkscape:document-units="mm"
     showgrid="false"
     inkscape:zoom="0.32"
     inkscape:cx="346.875"
     inkscape:cy="454.6875"
     inkscape:window-width="1440"
     inkscape:window-height="863"
     inkscape:window-x="0"
     inkscape:window-y="0"
     inkscape:window-maximized="1"
     inkscape:current-layer="layer1" />
  <defs
     id="defs20083">
    <rect
       x="13.741626"
       y="629.56845"
       width="1358.9018"
       height="240.85825"
       id="rect31237" />
    <rect
       x="169.03076"
       y="48.400879"
       width="689.39819"
       height="91.644287"
       id="rect29086" />
  </defs>
  <g
     inkscape:label="Layer 1"
     inkscape:groupmode="layer"
     id="layer1"
     transform="translate(74.947159,-22.659307)">
    <path
       id="path24822"
       style="display:inline;fill:#4b0f14;fill-opacity:1;stroke:none;stroke-width:0.709999;stroke-dasharray:none;stroke-opacity:1"
       d="M 106.37594,47.456535 A 60.758564,60.758564 0 0 0 45.617371,108.2151 60.758564,60.758564 0 0 0 106.37594,168.97367 60.758564,60.758564 0 0 0 167.1345,108.2151 60.758564,60.758564 0 0 0 106.37594,47.456535 Z m -0.001,4.596102 c 0.48456,0 0.9679,0.0064 1.44953,0.0186 0.93453,0.02369 1.86268,0.07121 2.78536,0.140043 0.50384,0.03759 1.0063,0.08046 1.50636,0.131259 0.886,0.09001 1.76525,0.202586 2.6386,0.333312 0.59713,0.08938 1.19098,0.188588 1.78181,0.296623 0.84649,0.154785 1.68746,0.326535 2.52026,0.518832 0.45284,0.104558 0.90326,0.214249 1.35185,0.329695 0.44875,0.115485 0.89511,0.236541 1.33945,0.362769 0.44418,0.126181 0.88593,0.257522 1.3255,0.394291 h 5.2e-4 c 0.10771,0.03351 0.214,0.07025 0.32143,0.104386 0.76939,0.244502 1.53313,0.5024 2.28771,0.778764 2.15039,0.787519 4.23941,1.702959 6.2575,2.736784 0.40363,0.206765 0.8041,0.417894 1.202,0.63407 l 5.1e-4,5.17e-4 c 0.79559,0.432244 1.58001,0.883382 2.3518,1.352372 0.61878,0.37601 1.22705,0.766874 1.82986,1.16582 0.14925,0.09878 0.30031,0.194914 0.44855,0.295073 0.74713,0.504766 1.4815,1.026608 2.20245,1.565796 0.36042,0.269544 0.71708,0.543208 1.07074,0.821138 0.70751,0.555998 1.40092,1.128547 2.08049,1.717208 0.33969,0.29425 0.67572,0.59233 1.00821,0.894519 h 5.1e-4 c 0.3324,0.302107 0.66094,0.608396 0.98599,0.91829 0.65038,0.620042 1.28575,1.255491 1.90583,1.905827 0.15588,0.163485 0.30808,0.330336 0.46199,0.495577 l -0.74156,0.668176 c -0.14763,-0.158518 -0.2903,-0.321757 -0.43977,-0.478524 -0.30443,-0.319287 -0.61306,-0.634787 -0.92501,-0.946712 -0.15407,-0.154068 -0.31179,-0.30458 -0.46767,-0.456819 -0.47523,-0.464135 -0.95582,-0.922568 -1.44745,-1.369426 l -5.2e-4,-5.17e-4 c -0.65289,-0.59334 -1.32053,-1.171358 -2.00143,-1.733227 -0.68109,-0.562028 -1.37564,-1.108246 -2.08359,-1.637626 -0.35398,-0.264694 -0.71129,-0.525032 -1.07177,-0.781348 -0.72096,-0.512632 -1.4548,-1.008473 -2.2009,-1.486731 -0.7461,-0.478257 -1.50471,-0.939098 -2.2748,-1.381828 -0.77008,-0.442725 -1.55164,-0.867259 -2.34456,-1.273307 -0.79291,-0.406048 -1.59715,-0.79348 -2.41174,-1.161686 -0.81459,-0.368211 -1.63967,-0.717228 -2.47478,-1.046448 -0.41756,-0.164611 -0.8374,-0.324394 -1.25987,-0.479041 -0.74143,-0.271395 -1.49147,-0.524711 -2.24741,-0.764811 -1.3979,-0.444 -2.81851,-0.836272 -4.26227,-1.169437 -0.88975,-0.205324 -1.78773,-0.389155 -2.69338,-0.550871 -0.45282,-0.08086 -0.90767,-0.156087 -1.36426,-0.225826 -0.91317,-0.13948 -1.83373,-0.256743 -2.76107,-0.350883 -1.85468,-0.188281 -3.73655,-0.284737 -5.641,-0.284737 -0.47611,0 -0.95098,0.0061 -1.4242,0.01809 -1.41948,0.03596 -2.82596,0.125457 -4.2168,0.266651 -0.927313,0.09414 -1.847913,0.211403 -2.761069,0.350883 -0.456575,0.06974 -0.911438,0.144968 -1.364258,0.225826 -0.905465,0.161694 -1.803293,0.345585 -2.692858,0.550871 h -5.17e-4 c -1.334428,0.307954 -2.650611,0.664311 -3.946013,1.067118 -0.863705,0.268571 -1.718237,0.557843 -2.563151,0.86713 -1.267367,0.46394 -2.512816,0.973171 -3.734655,1.525489 -0.814567,0.368206 -1.618851,0.755638 -2.41174,1.161686 -0.792883,0.406048 -1.574507,0.830582 -2.344559,1.273307 -0.770052,0.442731 -1.528731,0.90357 -2.274797,1.381828 -0.746066,0.478258 -1.479456,0.974099 -2.200382,1.486731 -0.720931,0.512627 -1.429265,1.042165 -2.123902,1.588017 -0.347312,0.27292 -0.69145,0.549943 -1.031978,0.830957 -1.361999,1.123978 -2.668952,2.312385 -3.916557,3.559989 -0.31192,0.311926 -0.620594,0.627425 -0.925008,0.946712 -0.149304,0.156602 -0.294889,0.31664 -0.44235,0.474907 L 65.26165,69.963688 c 0.153745,-0.165061 0.305767,-0.331751 0.46147,-0.49506 0.929855,-0.975278 1.894492,-1.917629 2.891813,-2.824117 0.332474,-0.302189 0.669052,-0.600269 1.008724,-0.894519 0.339679,-0.294251 0.68266,-0.584583 1.029395,-0.870748 0.693461,-0.572323 1.401031,-1.128504 2.121834,-1.667598 0.720805,-0.539102 1.454963,-1.061105 2.201933,-1.565796 0.746967,-0.504695 1.50646,-0.991786 2.278414,-1.460893 h 5.17e-4 c 1.157807,-0.703577 2.343078,-1.366736 3.553788,-1.986959 1.614316,-0.826987 3.274252,-1.578402 4.974373,-2.248958 0.425071,-0.167651 0.853059,-0.330322 1.283126,-0.487826 0.860128,-0.315003 1.729915,-0.609611 2.609143,-0.88315 0.43946,-0.136721 0.881489,-0.268151 1.325501,-0.394291 0.444165,-0.126182 0.890875,-0.247323 1.339453,-0.362769 0.448574,-0.115447 0.899533,-0.225136 1.352372,-0.329695 0.905671,-0.209128 1.819607,-0.396496 2.741435,-0.561206 0.460912,-0.08236 0.923815,-0.158927 1.388545,-0.229961 0.929465,-0.142062 1.866309,-0.261717 2.810164,-0.3576 0.47193,-0.04794 0.94579,-0.08991 1.4211,-0.126091 0.95062,-0.07236 1.90739,-0.120797 2.87063,-0.145211 0.48162,-0.01221 0.96497,-0.0186 1.44952,-0.0186 z m 0,7.685835 c 13.96828,0 26.55693,5.913399 35.40456,15.370122 l -0.63717,0.574125 c -8.68803,-9.280579 -21.04812,-15.08125 -34.76739,-15.08125 -13.719173,0 -26.078331,5.80075 -34.765834,15.08125 L 70.971895,75.108077 C 79.818974,65.651652 92.406911,59.738472 106.3749,59.738472 Z m 0,9.296591 c 11.22639,0 21.34522,4.733424 28.48974,12.303641 l -0.73846,0.665593 C 127.1666,74.63797 117.31295,70.035002 106.3749,70.035002 c -10.937774,0 -20.790693,4.602752 -27.749725,11.968778 L 77.886719,81.338704 C 85.030566,73.768476 95.148522,69.035063 106.3749,69.035063 Z m 0,10.1446 c 8.23526,10e-7 15.66671,3.438363 20.95221,8.950358 l -0.73845,0.665076 c -5.1006,-5.307815 -12.26719,-8.615495 -20.21376,-8.615495 -7.946433,0 -15.111764,3.307823 -20.211684,8.615495 L 85.42476,88.129504 c 5.284802,-5.511559 12.715265,-8.949841 20.95014,-8.949841 z m 0.001,14.009998 A 15.025524,15.025524 0 0 1 121.40138,108.2151 15.025524,15.025524 0 0 1 106.37594,123.24106 15.025524,15.025524 0 0 1 91.350496,108.2151 15.025524,15.025524 0 0 1 106.37594,93.189661 Z m 20.3326,34.318839 0.6997,0.7059 c -5.29038,5.56181 -12.75582,9.03562 -21.03334,9.03562 -8.277306,0 -15.742078,-3.47352 -21.031789,-9.03511 l 0.700216,-0.7059 c 5.107102,5.38117 12.322721,8.74107 20.331573,8.74107 8.00912,0 15.22586,-3.36012 20.33364,-8.74158 z m 7.14375,7.20421 0.70022,0.70538 c -7.12576,7.3791 -17.11383,11.97653 -28.17761,11.97653 -11.063505,0 -21.05046,-4.5972 -28.175539,-11.97601 l 0.699699,-0.70539 c 6.942622,7.19811 16.681018,11.68146 27.47584,11.68146 10.79509,0 20.53423,-4.48357 27.47739,-11.68197 z m 6.64973,6.70553 0.6041,0.60875 c -8.80731,9.04501 -21.11357,14.66629 -34.73122,14.66629 -13.61736,0 -25.922905,-5.62106 -34.729661,-14.66577 l 0.604098,-0.60875 c 8.649239,8.88882 20.740075,14.41152 34.125563,14.41152 13.38577,0 25.47734,-5.52292 34.12712,-14.41204 z m 5.31544,5.35988 0.69969,0.7059 c -0.14379,0.14697 -0.28558,0.29593 -0.43098,0.44132 -0.63528,0.63525 -1.28528,1.25545 -1.95027,1.85983 h -5.1e-4 c -0.66489,0.60429 -1.3442,1.19302 -2.0376,1.76527 -0.34675,0.28617 -0.69744,0.56801 -1.0511,0.84594 -0.70722,0.55578 -1.42819,1.09556 -2.16214,1.61747 -0.36704,0.26103 -0.73755,0.51763 -1.11105,0.76998 -1.12039,0.75696 -2.26985,1.47453 -3.44578,2.15078 -0.39202,0.22544 -0.78704,0.44631 -1.18494,0.66249 -2.38727,1.29697 -4.87917,2.42639 -7.4595,3.37137 -0.75458,0.27637 -1.51832,0.53426 -2.28771,0.77876 -0.10758,0.0342 -0.21408,0.0708 -0.32195,0.10439 -0.43942,0.13672 -0.88147,0.26815 -1.3255,0.39429 -0.44418,0.12618 -0.89086,0.24732 -1.33945,0.36277 -0.44843,0.1154 -0.89917,0.22517 -1.35185,0.32969 -0.8328,0.1923 -1.67377,0.36405 -2.52026,0.51884 -0.59083,0.10803 -1.18468,0.20723 -1.78181,0.29662 -0.87335,0.13073 -1.7526,0.2433 -2.6386,0.33331 -0.50006,0.0508 -1.00252,0.0937 -1.50636,0.13126 -1.39819,0.10431 -2.8101,0.15865 -4.23489,0.15865 -1.45366,0 -2.89423,-0.0553 -4.32015,-0.16382 -0.47531,-0.0362 -0.94917,-0.0781 -1.4211,-0.12609 -0.94385,-0.0959 -1.880699,-0.21553 -2.810164,-0.3576 -0.46473,-0.071 -0.927633,-0.1476 -1.388545,-0.22996 -0.921828,-0.16472 -1.835764,-0.35207 -2.741435,-0.56121 -0.905835,-0.20911 -1.803331,-0.44004 -2.691825,-0.69246 -0.444171,-0.12618 -0.885884,-0.25752 -1.325501,-0.39429 -0.879228,-0.27354 -1.749015,-0.56814 -2.609143,-0.88315 -0.430218,-0.15756 -0.857907,-0.32011 -1.283126,-0.48783 -0.425066,-0.16765 -0.847178,-0.34014 -1.267106,-0.51779 -2.519694,-1.06597 -4.945591,-2.31069 -7.261572,-3.71812 -0.38598,-0.23456 -0.768444,-0.47374 -1.148251,-0.71727 -0.75961,-0.48705 -1.507172,-0.99156 -2.241206,-1.51361 -0.73404,-0.52199 -1.454861,-1.0616 -2.162142,-1.61747 -1.061025,-0.83387 -2.091193,-1.70455 -3.088701,-2.61121 -0.160285,-0.14568 -0.316838,-0.29536 -0.475423,-0.44286 -0.499216,-0.46435 -0.99281,-0.93493 -1.474845,-1.41697 -0.145216,-0.14522 -0.286844,-0.29401 -0.430465,-0.4408 l 0.697632,-0.70384 c 0.453016,0.46327 0.913358,0.9192 1.382344,1.36633 0.319292,0.30442 0.641902,0.60499 0.968417,0.90175 h 5.17e-4 c 0.153458,0.13948 0.310568,0.27513 0.465604,0.4129 0.353499,0.31411 0.710747,0.62407 1.072286,0.92914 0.154531,0.13039 0.307043,0.26299 0.463021,0.39171 2.383776,1.9672 4.935754,3.73791 7.631059,5.28753 0.770052,0.44273 1.551676,0.86726 2.344559,1.27331 0.792889,0.40605 1.597173,0.79347 2.41174,1.16168 2.850967,1.28874 5.831037,2.3423 8.915734,3.13573 0.440674,0.11335 0.883218,0.22135 1.328085,0.32401 h 5.17e-4 c 0.889565,0.20529 1.787393,0.38918 2.692858,0.55087 0.452986,0.0809 0.907515,0.15606 1.364258,0.22583 0.913156,0.13948 1.833753,0.25674 2.761069,0.35088 0.92734,0.0941 1.86154,0.16526 2.8019,0.21291 0.47018,0.0238 0.94168,0.0418 1.4149,0.0537 0.47339,0.012 0.94792,0.0181 1.4242,0.0181 1.90445,0 3.78632,-0.0965 5.641,-0.28474 0.92734,-0.0941 1.8479,-0.2114 2.76107,-0.35088 0.45659,-0.0697 0.91144,-0.14497 1.36426,-0.22583 0.90565,-0.16171 1.80363,-0.34555 2.69338,-0.55087 3.55894,-0.82131 6.98602,-1.98687 10.24433,-3.45974 0.81459,-0.36821 1.61883,-0.75563 2.41174,-1.16168 0.79292,-0.40605 1.57448,-0.83058 2.34456,-1.27331 2.6953,-1.54958 5.24725,-3.32041 7.63106,-5.28753 0.68109,-0.56204 1.34837,-1.14022 2.00143,-1.73375 0.65306,-0.59352 1.29176,-1.20238 1.91564,-1.82624 0.14642,-0.14641 0.28922,-0.29642 0.43409,-0.44442 z" />
    <path
       id="rect26606"
       style="color:#000000;fill:#4b0f14;-inkscape-stroke:none;fill-opacity:1"
       d="m 28.169857,88.75789 c -1.357718,0 -2.614419,0.344367 -3.638538,1.02526 -1.024119,0.680894 -1.881022,1.827888 -1.881022,3.22461 v 103.9921 c 0,1.39672 0.856903,2.54372 1.881022,3.22461 1.024119,0.68089 2.28082,1.02578 3.638538,1.02578 H 184.58201 c 1.35772,0 2.61442,-0.34489 3.63854,-1.02578 1.02412,-0.68089 1.88102,-1.82789 1.88102,-3.22461 V 93.00776 c 0,-1.396722 -0.8569,-2.543716 -1.88102,-3.22461 -1.02412,-0.680893 -2.28082,-1.02526 -3.63854,-1.02526 h -18.74924 a 62.563282,62.563282 0 0 1 1.0232,3.466972 h 17.72604 c 0.73917,0 1.37668,0.216118 1.72083,0.444934 0.34416,0.228816 0.33176,0.340553 0.33176,0.337964 v 103.9921 c 0,-0.003 0.0124,0.10915 -0.33176,0.33797 -0.34415,0.22882 -0.98166,0.44545 -1.72083,0.44545 H 28.169857 c -0.739171,0 -1.376668,-0.21663 -1.720825,-0.44545 -0.344158,-0.22882 -0.331763,-0.34056 -0.331763,-0.33797 V 93.00776 c 0,0.0026 -0.0124,-0.109148 0.331763,-0.337964 0.344157,-0.228816 0.981654,-0.444934 1.720825,-0.444934 h 17.76584 a 62.563282,62.563282 0 0 1 1.016476,-3.466972 z" />
    <path
       style="display:none;opacity:1;fill:#4b0f14;fill-opacity:1;stroke:#ffffff;stroke-width:2.66975;stroke-dasharray:none;stroke-opacity:1"
       id="path29030"
       sodipodi:type="arc"
       sodipodi:cx="23.561193"
       sodipodi:cy="-149.90402"
       sodipodi:rx="62.563282"
       sodipodi:ry="62.563282"
       sodipodi:start="1.3849972"
       sodipodi:end="1.377623"
       sodipodi:arc-type="arc"
       d="m 35.118632,-88.417521 a 62.563282,62.563282 0 0 1 -73.022529,-49.815729 62.563282,62.563282 0 0 1 49.681025,-73.11424 62.563282,62.563282 0 0 1 73.205707,49.54615 62.563282,62.563282 0 0 1 -49.411108,73.296922"
       sodipodi:open="true"
       transform="rotate(126.55859)" />
    <rect
       style="opacity:1;fill:#4b0f14;fill-opacity:1;stroke:none;stroke-width:3;stroke-dasharray:none;stroke-opacity:1"
       id="rect29352"
       width="3.3339372"
       height="80.125923"
       x="22.698874"
       y="22.659307"
       rx="3.7850041"
       ry="2.51649" />
    <rect
       style="opacity:1;fill:#4b0f14;fill-opacity:1;stroke:none;stroke-width:3;stroke-dasharray:none;stroke-opacity:1"
       id="rect29354"
       width="3.3339372"
       height="80.125923"
       x="186.79608"
       y="22.659307"
       rx="3.7850041"
       ry="2.51649" />
    <path
       id="rect29775"
       style="opacity:1;fill:#4b0f14;fill-opacity:1;stroke:none;stroke-width:2.81085;stroke-dasharray:none;stroke-opacity:1"
       d="M -70.290079 186.90768 C -72.870102 186.90768 -74.947159 188.98474 -74.947159 191.56476 L -74.947159 248.61606 C -74.947159 251.19608 -72.870102 253.27314 -70.290079 253.27314 L 284.85672 253.27314 C 287.43674 253.27314 289.5138 251.19608 289.5138 248.61606 L 289.5138 191.56476 C 289.5138 188.98474 287.43674 186.90768 284.85672 186.90768 L -70.290079 186.90768 z M -39.614432 208.08365 C -35.893736 208.08365 -32.979174 209.14819 -30.87078 211.27725 C -28.762385 213.40632 -27.708182 216.34672 -27.708182 220.09842 C -27.708182 223.83978 -28.762385 226.77502 -30.87078 228.90408 C -32.979174 231.03315 -35.893736 232.09769 -39.614432 232.09769 C -43.324792 232.09769 -46.239355 231.03315 -48.358084 228.90408 C -50.466478 226.77502 -51.520682 223.83978 -51.520682 220.09842 C -51.520682 216.34672 -50.466478 213.40632 -48.358084 211.27725 C -46.239355 209.14819 -43.324792 208.08365 -39.614432 208.08365 z M 229.87299 208.08365 C 233.59369 208.08365 236.50826 209.14819 238.61665 211.27725 C 240.72506 213.40632 241.77924 216.34672 241.77924 220.09842 C 241.77924 223.83978 240.72506 226.77502 238.61665 228.90408 C 236.50826 231.03315 233.59369 232.09769 229.87299 232.09769 C 226.16264 232.09769 223.24758 231.03315 221.12883 228.90408 C 219.02044 226.77502 217.96674 223.83978 217.96674 220.09842 C 217.96674 216.34672 219.02044 213.40632 221.12883 211.27725 C 223.24758 209.14819 226.16264 208.08365 229.87299 208.08365 z M -23.196829 208.50223 L -13.290457 208.50223 C -10.344907 208.50223 -8.086639 209.15852 -6.5156771 210.4711 C -4.9343831 211.77334 -4.1437288 213.6337 -4.1437288 216.05215 C -4.1437288 218.48094 -4.9343831 220.35164 -6.5156771 221.66421 C -8.086639 222.96646 -10.344907 223.61758 -13.290457 223.61758 L -17.228201 223.61758 L -17.228201 231.6481 L -23.196829 231.6481 L -23.196829 208.50223 z M 0.073068051 208.50223 L 16.180612 208.50223 L 16.180612 213.01358 L 6.041696 213.01358 L 6.041696 217.32339 L 15.575998 217.32339 L 15.575998 221.83475 L 6.041696 221.83475 L 6.041696 227.13675 L 16.521676 227.13675 L 16.521676 231.6481 L 0.073068051 231.6481 L 0.073068051 208.50223 z M 21.761667 208.50223 L 28.427926 208.50223 L 36.846017 224.37723 L 36.846017 208.50223 L 42.504587 208.50223 L 42.504587 231.6481 L 35.838327 231.6481 L 27.420236 215.7731 L 27.420236 231.6481 L 21.761667 231.6481 L 21.761667 208.50223 z M 65.867502 208.50223 L 71.867135 208.50223 L 78.006296 225.58646 L 84.129953 208.50223 L 90.129587 208.50223 L 81.556466 231.6481 L 74.440622 231.6481 L 65.867502 208.50223 z M 93.199167 208.50223 L 99.167795 208.50223 L 99.167795 231.6481 L 93.199167 231.6481 L 93.199167 208.50223 z M 105.0124 208.50223 L 111.67866 208.50223 L 120.09675 224.37723 L 120.09675 208.50223 L 125.75532 208.50223 L 125.75532 231.6481 L 119.08906 231.6481 L 110.67097 215.7731 L 110.67097 231.6481 L 105.0124 231.6481 L 105.0124 208.50223 z M 128.35981 208.50223 L 134.88654 208.50223 L 140.15754 216.74979 L 145.42854 208.50223 L 151.97077 208.50223 L 143.14961 221.89676 L 143.14961 231.6481 L 137.18098 231.6481 L 137.18098 221.89676 L 128.35981 208.50223 z M 154.57527 208.50223 L 160.54389 208.50223 L 160.54389 227.13675 L 171.02387 227.13675 L 171.02387 231.6481 L 154.57527 231.6481 L 154.57527 208.50223 z M 195.09992 208.50223 L 204.06062 208.50223 C 207.27489 208.50223 209.60033 208.98799 211.03694 209.9595 C 212.48386 210.93102 213.20683 212.48648 213.20683 214.62588 C 213.20683 215.75243 212.94328 216.71361 212.41618 217.50943 C 211.88908 218.29491 211.12479 218.87886 210.12226 219.26126 C 211.40385 219.63333 212.39604 220.32063 213.09882 221.32315 C 213.80161 222.32567 214.15251 223.55557 214.15251 225.01285 C 214.15251 227.24526 213.39854 228.90925 211.8896 230.00479 C 210.38065 231.10033 208.0862 231.6481 205.0063 231.6481 L 195.09992 231.6481 L 195.09992 208.50223 z M 243.15901 208.50223 L 249.39067 208.50223 L 254.46064 215.95914 L 259.5146 208.50223 L 265.77726 208.50223 L 258.0568 219.83487 L 266.08784 231.6481 L 259.87065 231.6481 L 254.46064 223.74161 L 249.09663 231.6481 L 242.84895 231.6481 L 250.87895 219.83487 L 243.15901 208.50223 z M -39.614432 212.40897 C -41.433439 212.40897 -42.844211 213.08076 -43.846732 214.42435 C -44.849253 215.76793 -45.350516 217.6593 -45.350516 220.09842 C -45.350516 222.52721 -44.849253 224.4134 -43.846732 225.75699 C -42.844211 227.10057 -41.433439 227.77237 -39.614432 227.77237 C -37.78509 227.77237 -36.36915 227.10057 -35.366629 225.75699 C -34.364108 224.4134 -33.862845 222.52721 -33.862845 220.09842 C -33.862845 217.6593 -34.364108 215.76793 -35.366629 214.42435 C -36.36915 213.08076 -37.78509 212.40897 -39.614432 212.40897 z M 229.87299 212.40897 C 228.05399 212.40897 226.6432 213.08076 225.6407 214.42435 C 224.63816 215.76793 224.13639 217.6593 224.13639 220.09842 C 224.13639 222.52721 224.63816 224.4134 225.6407 225.75699 C 226.6432 227.10057 228.05399 227.77237 229.87299 227.77237 C 231.70232 227.77237 233.11827 227.10057 234.1208 225.75699 C 235.1233 224.4134 235.62458 222.52721 235.62458 220.09842 C 235.62458 217.6593 235.1233 215.76793 234.1208 214.42435 C 233.11827 213.08076 231.70232 212.40897 229.87299 212.40897 z M 201.06855 212.56399 L 201.06855 217.46292 L 204.37068 217.46292 C 205.31118 217.46292 206.02432 217.25621 206.51008 216.8428 C 206.99584 216.42939 207.23872 215.81961 207.23872 215.01346 C 207.23872 214.21764 206.99584 213.61303 206.51008 213.19961 C 206.02432 212.77587 205.31118 212.56399 204.37068 212.56399 L 201.06855 212.56399 z M -17.228201 212.82754 L -17.228201 219.29227 L -13.926077 219.29227 C -12.768529 219.29227 -11.874524 219.01321 -11.244071 218.45511 C -10.613619 217.88667 -10.298392 217.08568 -10.298392 216.05215 C -10.298392 215.01863 -10.613619 214.22281 -11.244071 213.6647 C -11.874524 213.1066 -12.768529 212.82754 -13.926077 212.82754 L -17.228201 212.82754 z M 55.573556 214.28482 C 56.328031 214.28482 57.041168 214.42435 57.712961 214.7034 C 58.395088 214.98245 58.994538 215.38036 59.5113 215.89712 C 60.048735 216.43456 60.45181 217.03917 60.720529 217.71097 C 60.999579 218.37242 61.139108 219.0804 61.139108 219.83487 C 61.139108 220.59968 60.999579 221.32315 60.720529 222.00528 C 60.441476 222.67707 60.0384 223.27652 59.5113 223.80362 C 58.984203 224.33072 58.379587 224.73379 57.697458 225.01285 C 57.025665 225.2919 56.30736 225.43143 55.54255 225.43143 C 54.788076 225.43143 54.074936 225.2919 53.403146 225.01285 C 52.731354 224.73379 52.131906 224.33072 51.604806 223.80362 C 51.088044 223.27652 50.690134 222.67707 50.411081 222.00528 C 50.132028 221.32315 49.992502 220.59968 49.992502 219.83487 C 49.992502 219.07006 50.126859 218.35175 50.395578 217.67996 C 50.674628 217.00817 51.077709 216.41389 51.604806 215.89712 C 52.152575 215.37003 52.76236 214.97212 53.434152 214.7034 C 54.105944 214.42435 54.819082 214.28482 55.573556 214.28482 z M 182.04646 214.28482 C 182.80093 214.28482 183.51407 214.42435 184.18586 214.7034 C 184.86799 214.98245 185.46744 215.38036 185.9842 215.89712 C 186.52164 216.43456 186.92471 217.03917 187.19343 217.71097 C 187.47248 218.37242 187.61201 219.0804 187.61201 219.83487 C 187.61201 220.59968 187.47248 221.32315 187.19343 222.00528 C 186.91438 222.67707 186.5113 223.27652 185.9842 223.80362 C 185.4571 224.33072 184.85249 224.73379 184.17036 225.01285 C 183.49857 225.2919 182.78026 225.43143 182.01545 225.43143 C 181.26098 225.43143 180.54784 225.2919 179.87605 225.01285 C 179.20426 224.73379 178.6048 224.33072 178.07771 223.80362 C 177.56094 223.27652 177.16303 222.67707 176.88398 222.00528 C 176.60493 221.32315 176.4654 220.59968 176.4654 219.83487 C 176.4654 219.07006 176.59976 218.35175 176.86848 217.67996 C 177.14753 217.00817 177.55061 216.41389 178.07771 215.89712 C 178.62548 215.37003 179.23526 214.97212 179.90705 214.7034 C 180.57884 214.42435 181.29198 214.28482 182.04646 214.28482 z M 201.06855 221.52469 L 201.06855 227.58633 L 204.57221 227.58633 C 205.7711 227.58633 206.67028 227.33312 207.26972 226.82669 C 207.87949 226.32026 208.18388 225.55545 208.18388 224.53226 C 208.18388 223.52974 207.88467 222.78042 207.28523 222.28433 C 206.68578 221.7779 205.78144 221.52469 204.57221 221.52469 L 201.06855 221.52469 z " />
    <g
       aria-label="OPEN•VINYL•BOX"
       transform="matrix(0.26458333,0,0,0.26458333,-56.738186,33.862301)"
       id="text31235"
       style="font-weight:bold;font-size:133.333px;font-family:'DejaVu Sans';-inkscape-font-specification:'DejaVu Sans, Bold';white-space:pre;shape-inside:url(#rect31237);opacity:1;fill:#4b0f14;stroke-width:11.3386;fill-opacity:1" />
  </g>
</svg>
